<svg width="73" height="61" viewBox="0 0 73 61" fill="none" xmlns="http://www.w3.org/2000/svg">
<path fill-rule="evenodd" clip-rule="evenodd" d="M26.5027 11.167C30.0674 11.5107 34.1081 11.2378 37.6938 12.3792C45.7131 14.9323 48.0098 22.7424 43.3011 29.7781C38.5885 36.8194 27.9144 39.9835 20.1436 36.6431C15.5188 34.655 13.2351 30.9806 13.3787 25.7825C13.4037 24.885 13.3819 23.9876 13.3819 22.6764C12.2655 23.5457 11.5153 24.3747 10.5795 24.7852C9.74378 25.1523 8.45711 25.4533 7.82064 25.0581C7.14786 24.6387 6.60254 23.3138 6.70903 22.4743C7.11076 19.2949 8.78463 16.7482 11.4709 14.9855C13.3069 13.7797 15.0453 14.7327 15.2494 16.943C15.3083 17.5893 15.2583 18.2453 15.2583 19.0245C17.8244 16.9269 20.2694 14.9283 23.23 12.5079C21.7682 12.788 20.872 13.1696 20.0355 13.0649C19.1167 12.9514 18.0615 12.578 17.4509 11.9453C17.1653 11.6507 17.546 10.2445 18.0381 9.75032C20.8365 6.93716 24.2456 5.31044 28.2742 5.37645C30.1537 5.40703 30.7781 6.88565 29.5318 8.34898C28.5138 9.54829 27.2206 10.5134 26.5027 11.167Z" fill="black"/>
<path fill-rule="evenodd" clip-rule="evenodd" d="M50.7726 29.7925C55.9532 29.7957 58.5434 33.7253 56.1444 38.4911C53.7049 43.3391 49.6756 46.3511 44.0352 46.5314C38.5634 46.706 36.6839 43.1363 38.3892 38.1973C39.9872 33.5691 45.8761 29.7901 50.7726 29.7925Z" fill="black"/>
<path fill-rule="evenodd" clip-rule="evenodd" d="M55.9242 26.8547C51.2495 26.8225 47.0838 22.5492 47.0959 17.7986C47.1039 14.2916 49.5764 11.6998 52.8927 11.7216C57.5223 11.753 62.3099 16.5583 62.2866 21.1527C62.2688 24.6903 59.8221 26.8804 55.9242 26.8547Z" fill="black"/>
<path fill-rule="evenodd" clip-rule="evenodd" d="M25.166 50.7226C22.9952 50.1222 20.747 49.7116 18.6754 48.8689C16.6265 48.035 15.1123 46.3882 15.1462 44.0274C15.1793 41.7229 16.7676 40.3626 18.8215 39.6607C22.8315 38.29 26.848 38.4099 30.6394 40.3232C32.7481 41.3881 34.4494 43.051 33.9428 45.7571C33.4297 48.5051 31.1274 49.4034 28.8211 50.0642C27.7071 50.3837 26.4713 50.2823 25.2903 50.3725C25.2491 50.4892 25.208 50.6051 25.166 50.7226Z" fill="black"/>
<path fill-rule="evenodd" clip-rule="evenodd" d="M67.1202 32.4125C71.7763 32.3844 73.831 35.707 71.8498 39.4531C70.0968 42.7693 65.706 44.784 62.6108 43.6925C59.6188 42.6373 58.5023 40.0173 59.9132 37.176C61.4564 34.0698 64.1104 32.6427 67.1202 32.4125Z" fill="black"/>
<path fill-rule="evenodd" clip-rule="evenodd" d="M33.2886 60.8017C31.4292 60.281 29.9715 60.0902 28.7244 59.4769C25.9921 58.1319 25.813 55.0933 28.3492 53.3845C31.4009 51.3288 34.7922 51.1799 38.115 52.475C40.9908 53.5954 41.3724 56.7643 38.7918 58.5086C37.1179 59.6387 35.0004 60.1152 33.2886 60.8017Z" fill="black"/>
<path fill-rule="evenodd" clip-rule="evenodd" d="M42.313 11.9758C40.143 11.29 37.7044 10.8296 35.5675 9.76311C33.1587 8.56058 33.3193 6.49277 35.6409 5.13891C38.6418 3.38984 45.8503 3.76735 48.5866 5.81745C50.584 7.31217 50.5275 9.35664 48.2357 10.374C46.5038 11.1427 44.5427 11.3971 42.313 11.9758Z" fill="black"/>
<path fill-rule="evenodd" clip-rule="evenodd" d="M14.5275 35.9984C14.7074 38.1805 13.8466 39.9207 11.867 40.753C9.76804 41.6344 8.00704 40.5212 6.72602 38.9476C5.08442 36.9305 4.01395 34.6115 4.78433 31.9054C5.79914 28.3413 9.31145 27.2804 11.8106 29.9978C13.261 31.5738 14.0564 33.7503 15.1462 35.6555C14.9405 35.7698 14.734 35.8841 14.5275 35.9984Z" fill="black"/>
<path fill-rule="evenodd" clip-rule="evenodd" d="M56.8276 2.6936C58.6814 3.60476 60.3392 4.11588 61.5726 5.13811C62.3107 5.74904 62.8996 7.33873 62.6116 8.15733C62.3171 8.99524 60.8417 9.96435 59.931 9.91847C58.3184 9.83798 56.5477 9.32122 55.2199 8.42858C54.2947 7.80719 53.3258 6.04605 53.5977 5.17031C53.9091 4.169 55.5716 3.58705 56.8276 2.6936Z" fill="black"/>
<path fill-rule="evenodd" clip-rule="evenodd" d="M9.34853 46.6955C8.57008 47.7966 8.04816 49.3155 7.16241 49.5674C6.29119 49.8145 4.72219 49.0474 4.05909 48.2369C3.21369 47.2026 2.58689 45.6773 2.5885 44.3653C2.59012 43.3157 3.44843 41.8628 4.35595 41.3614C4.97549 41.0185 6.65985 41.7276 7.28342 42.4609C8.19981 43.5403 8.59186 45.0599 9.34853 46.6955Z" fill="black"/>
<path fill-rule="evenodd" clip-rule="evenodd" d="M32.4343 3.84467C31.5437 3.27721 30.6595 2.71297 29.7738 2.15034C30.6595 1.49112 31.4606 0.505909 32.4496 0.255582C33.7863 -0.08248 35.3053 -0.0631616 36.6758 0.18475C38.0867 0.439907 38.319 1.52895 37.0203 2.23807C35.732 2.94156 34.2227 3.24018 32.4343 3.84467Z" fill="black"/>
<path fill-rule="evenodd" clip-rule="evenodd" d="M4.48101 23.7276C4.3955 26.2985 2.64499 28.8919 1.30428 28.7181C0.788809 28.6513 0.0361708 27.7111 0.00390337 27.1356C-0.102579 25.2296 1.994 22.3714 3.30002 22.5758C3.85583 22.6636 4.28902 23.528 4.48101 23.7276Z" fill="black"/>
<path fill-rule="evenodd" clip-rule="evenodd" d="M11.4709 13.0384C11.0256 11.8174 10.64 11.2395 10.6715 10.6857C10.6941 10.2832 11.1934 9.75037 11.6113 9.55639C13.0867 8.87221 14.6162 8.30958 16.1255 7.69946C16.2174 8.15424 16.5409 8.86658 16.3651 9.02354C14.9558 10.2864 13.4505 11.4431 11.4709 13.0384Z" fill="black"/>
</svg>
